<svg version="1.1"
     baseProfile="full"
     xmlns="http://www.w3.org/2000/svg">

           <circle cx="415" cy="0" r="5" fill="#47D1AF"/>
           <circle cx="418" cy="20" r="5" fill="#47D1AF"/>
           <circle cx="418" cy="40" r="5" fill="#47D1AF"/>
           <circle cx="416" cy="60" r="5" fill="#47D1AF"/>
           <circle cx="414" cy="80" r="5" fill="#47D1AF"/>
           <circle cx="410" cy="100" r="5" fill="#47D1AF"/>
           <circle cx="404" cy="120" r="5" fill="#47D1AF"/>
           <circle cx="394" cy="138" r="5" fill="#47D1AF"/>
           <circle cx="380" cy="152" r="5" fill="#47D1AF"/>
           <circle cx="362" cy="160" r="5" fill="#47D1AF"/>
           <circle cx="342" cy="166" r="5" fill="#47D1AF"/>
           <circle cx="322" cy="170" r="5" fill="#47D1AF"/>
           <circle cx="302" cy="172" r="5" fill="#47D1AF"/>
           <circle cx="282" cy="172" r="5" fill="#47D1AF"/>
           <circle cx="262" cy="170" r="5" fill="#47D1AF"/>
           <circle cx="242" cy="166" r="5" fill="#47D1AF"/>
           <circle cx="222" cy="158" r="5" fill="#47D1AF"/>
           <circle cx="206" cy="148" r="5" fill="#47D1AF"/>
           <circle cx="192" cy="136" r="5" fill="#47D1AF"/>
           <circle cx="180" cy="122" r="5" fill="#47D1AF"/>
           <circle cx="170" cy="108" r="5" fill="#47D1AF"/>
           <circle cx="166" cy="92" r="5" fill="#47D1AF"/>
           <circle cx="167" cy="74" r="5" fill="#47D1AF"/>
           <circle cx="174" cy="58" r="5" fill="#47D1AF"/>
           <circle cx="186" cy="42" r="5" fill="#47D1AF"/>
           <circle cx="200" cy="34" r="5" fill="#47D1AF"/>
           <circle cx="216" cy="28" r="5" fill="#47D1AF"/>
           <circle cx="236" cy="26" r="5" fill="#47D1AF"/>
           <circle cx="254" cy="30" r="5" fill="#47D1AF"/>
           <circle cx="270" cy="38" r="5" fill="#47D1AF"/>
           <circle cx="280" cy="52" r="5" fill="#47D1AF"/>
           <circle cx="285" cy="70" r="5" fill="#47D1AF"/>
           <circle cx="284" cy="88" r="5" fill="#47D1AF"/>
           <circle cx="280" cy="106" r="5" fill="#47D1AF"/>
           <circle cx="274" cy="124" r="5" fill="#47D1AF"/>
           <circle cx="268" cy="142" r="5" fill="#47D1AF"/>



































</svg>
