<svg version="1.1"
     baseProfile="full"
     xmlns="http://www.w3.org/2000/svg">
     <!-- <circle cx="150" cy="100" r="80" fill="#ECFBF8"/> -->

     <circle cx="350" cy="0" r="5" fill="#47D1AF"/>
     <circle cx="348" cy="20" r="5" fill="#47D1AF"/>
     <circle cx="346" cy="40" r="5" fill="#47D1AF"/>
     <circle cx="344" cy="60" r="5" fill="#47D1AF"/>
     <circle cx="342" cy="80" r="5" fill="#47D1AF"/>
     <circle cx="341" cy="100" r="5" fill="#47D1AF"/>
     <circle cx="342" cy="120" r="5" fill="#47D1AF"/>
     <circle cx="344" cy="140" r="5" fill="#47D1AF"/>
     <circle cx="346" cy="160" r="5" fill="#47D1AF"/>
     <circle cx="348" cy="180" r="5" fill="#47D1AF"/>
     <circle cx="351" cy="200" r="5" fill="#47D1AF"/>
     <circle cx="354" cy="220" r="5" fill="#47D1AF"/>
     <circle cx="358" cy="240" r="5" fill="#47D1AF"/>
     <circle cx="364" cy="260" r="5" fill="#47D1AF"/>
     <circle cx="373" cy="280" r="5" fill="#47D1AF"/>
     <circle cx="384" cy="300" r="5" fill="#47D1AF"/>
     <circle cx="400" cy="318" r="5" fill="#47D1AF"/>
     <circle cx="422" cy="330" r="5" fill="#47D1AF"/>
     <circle cx="445" cy="340" r="5" fill="#47D1AF"/>
     <circle cx="470" cy="344" r="5" fill="#47D1AF"/>
     <circle cx="494" cy="344" r="5" fill="#47D1AF"/>
     <circle cx="516" cy="340" r="5" fill="#47D1AF"/>
     <circle cx="536" cy="334" r="5" fill="#47D1AF"/>
     <circle cx="556" cy="326" r="5" fill="#47D1AF"/>
     <circle cx="576" cy="318" r="5" fill="#47D1AF"/>
     <circle cx="596" cy="308" r="5" fill="#47D1AF"/>
     <circle cx="614" cy="296" r="5" fill="#47D1AF"/>
     <circle cx="632" cy="284" r="5" fill="#47D1AF"/>
     <circle cx="648" cy="270" r="5" fill="#47D1AF"/>
     <circle cx="664" cy="256" r="5" fill="#47D1AF"/>
     <circle cx="676" cy="240" r="5" fill="#47D1AF"/>
     <circle cx="686" cy="222" r="5" fill="#47D1AF"/>
     <circle cx="694" cy="204" r="5" fill="#47D1AF"/>
     <circle cx="700" cy="186" r="5" fill="#47D1AF"/>
     <circle cx="702" cy="166" r="5" fill="#47D1AF"/>
     <circle cx="700" cy="146" r="5" fill="#47D1AF"/>
     <circle cx="695" cy="128" r="5" fill="#47D1AF"/>
     <circle cx="685" cy="112" r="5" fill="#47D1AF"/>
     <circle cx="668" cy="102" r="5" fill="#47D1AF"/>
     <circle cx="650" cy="96" r="5" fill="#47D1AF"/>
     <circle cx="630" cy="92" r="5" fill="#47D1AF"/>
     <circle cx="610" cy="94" r="5" fill="#47D1AF"/>
     <circle cx="590" cy="98" r="5" fill="#47D1AF"/>
     <circle cx="570" cy="106" r="5" fill="#47D1AF"/>
     <circle cx="552" cy="118" r="5" fill="#47D1AF"/>
     <circle cx="536" cy="132" r="5" fill="#47D1AF"/>
     <circle cx="520" cy="146" r="5" fill="#47D1AF"/>
     <circle cx="506" cy="160" r="5" fill="#47D1AF"/>
     <circle cx="494" cy="178" r="5" fill="#47D1AF"/>
     <circle cx="484" cy="196" r="5" fill="#47D1AF"/>
     <circle cx="474" cy="214" r="5" fill="#47D1AF"/>
     <circle cx="464" cy="232" r="5" fill="#47D1AF"/>
     <circle cx="454" cy="252" r="5" fill="#47D1AF"/>
     <circle cx="446" cy="272" r="5" fill="#47D1AF"/>
     <circle cx="440" cy="294" r="5" fill="#47D1AF"/>
     <circle cx="436" cy="316" r="5" fill="#47D1AF"/>
     <circle cx="432" cy="336" r="5" fill="#47D1AF"/>
     <circle cx="430" cy="358" r="5" fill="#47D1AF"/>
     <circle cx="428" cy="380" r="5" fill="#47D1AF"/>
     <circle cx="426" cy="400" r="5" fill="#47D1AF"/>
     <circle cx="424" cy="422" r="5" fill="#47D1AF"/>
     <circle cx="422" cy="444" r="5" fill="#47D1AF"/>
     <circle cx="420" cy="464" r="5" fill="#47D1AF"/>
     <circle cx="418" cy="486" r="5" fill="#47D1AF"/>
     <circle cx="416" cy="506" r="5" fill="#47D1AF"/>
     <circle cx="414" cy="528" r="5" fill="#47D1AF"/>
     <circle cx="412" cy="548" r="5" fill="#47D1AF"/>
     <circle cx="410" cy="570" r="5" fill="#47D1AF"/>
     <circle cx="408" cy="590" r="5" fill="#47D1AF"/>
     <circle cx="406" cy="612" r="5" fill="#47D1AF"/>
     <circle cx="404" cy="632" r="5" fill="#47D1AF"/>
     <circle cx="402" cy="654" r="5" fill="#47D1AF"/>
     <circle cx="400" cy="674" r="5" fill="#47D1AF"/>







</svg>
