<?xml version="1.0" encoding="utf-8"?>
<!-- Generator: Adobe Illustrator 15.1.0, SVG Export Plug-In . SVG Version: 6.00 Build 0)  -->
<!DOCTYPE svg PUBLIC "-//W3C//DTD SVG 1.1//EN" "http://www.w3.org/Graphics/SVG/1.1/DTD/svg11.dtd">
<svg version="1.1" xmlns="http://www.w3.org/2000/svg" xmlns:xlink="http://www.w3.org/1999/xlink" x="0px" y="0px"
	 width="841.89px" height="595.28px" viewBox="0 0 841.89 595.28" enable-background="new 0 0 841.89 595.28" xml:space="preserve">
<g id="Layer_2" display="none">
	<rect x="177" y="99" display="inline" fill="#61C3A7" width="441" height="330"/>
</g>
<g id="Layer_1">
	<path fill="#61C3A7" stroke="#EAF6F5" stroke-width="2" stroke-miterlimit="10" d="M523.727,241.025
		c0-10.98-9.455-19.883-21.117-19.883c-3.43,0-6.657,0.787-9.521,2.152c-5.039-6.421-13.133-10.587-22.263-10.587
		c-12.152,0-22.467,7.38-26.185,17.636c-0.283-0.007-0.565-0.019-0.851-0.019c-13.851,0-25.443,8.401-28.457,19.675h-6.584l22,84.75
		l72.294-3.157l19.518-78.926C524.834,247.833,523.727,245.205,523.727,241.025z"/>
	<polygon fill="#EAF6F5" points="337.791,257.978 298.57,257.978 288.791,304.591 337.791,304.591 	"/>

		<rect x="352.992" y="267.1" transform="matrix(0.3023 0.9532 -0.9532 0.3023 553.9869 -201.3797)" fill="#5C3A21" width="123.14" height="21.311"/>
	<circle fill="#5C3A21" cx="355.977" cy="359.192" r="23.088" >
		<animateTransform attributeName="transform"
		 attributeType="XML"
		 type="rotate"
		 from="0 355.977 359.192"
		 to="360 355.977 359.192"
		 dur="10s"
		 repeatCount="indefinite" /></circle>
	<circle fill="#EAF6F5" cx="355.977" cy="359.192" r="11.725"/>
	<circle fill="#5C3A21" cx="495.79" cy="359.192" r="23.088"/>
	<circle fill="#EAF6F5" cx="495.789" cy="359.192" r="11.725"/>

		<rect x="460.991" y="266.1" transform="matrix(-0.3023 0.9532 -0.9532 -0.3023 944.3492 -137.6819)" fill="#5C3A21" width="123.14" height="21.311"/>
	<g>
		<path fill="#EAF6F5" d="M430.774,265.78c0.937,0.576,2.305,1.056,3.744,1.056c2.137,0,3.385-1.128,3.385-2.76
			c0-1.513-0.864-2.377-3.049-3.217c-2.64-0.936-4.272-2.304-4.272-4.584c0-2.521,2.089-4.393,5.232-4.393
			c1.656,0,2.856,0.384,3.577,0.792l-0.576,1.704c-0.528-0.288-1.608-0.768-3.072-0.768c-2.209,0-3.049,1.319-3.049,2.424
			c0,1.512,0.984,2.256,3.217,3.12c2.736,1.057,4.128,2.376,4.128,4.753c0,2.496-1.848,4.656-5.664,4.656
			c-1.561,0-3.265-0.456-4.129-1.032L430.774,265.78z"/>
		<path fill="#EAF6F5" d="M446.446,268.324l-5.28-16.178h2.257l2.52,7.969c0.696,2.185,1.297,4.152,1.729,6.049h0.048
			c0.456-1.872,1.128-3.912,1.849-6.024l2.736-7.993h2.231l-5.784,16.178H446.446z"/>
		<path fill="#EAF6F5" d="M468.6,267.604c-0.937,0.336-2.785,0.888-4.969,0.888c-2.448,0-4.465-0.624-6.049-2.136
			c-1.392-1.345-2.256-3.505-2.256-6.025c0.023-4.824,3.336-8.353,8.761-8.353c1.872,0,3.336,0.408,4.032,0.744l-0.504,1.704
			c-0.864-0.384-1.944-0.696-3.576-0.696c-3.937,0-6.505,2.448-6.505,6.505c0,4.104,2.473,6.528,6.24,6.528
			c1.368,0,2.305-0.191,2.784-0.432v-4.824h-3.288v-1.681h5.329V267.604z"/>
	</g>
	<g>
		<path fill="#EAF6F5" d="M444.484,307.156c0.702,0.432,1.729,0.792,2.809,0.792c1.603,0,2.539-0.847,2.539-2.07
			c0-1.135-0.648-1.783-2.287-2.413c-1.98-0.702-3.204-1.729-3.204-3.439c0-1.891,1.566-3.295,3.925-3.295
			c1.242,0,2.143,0.288,2.683,0.595l-0.432,1.278c-0.396-0.216-1.207-0.576-2.305-0.576c-1.657,0-2.287,0.99-2.287,1.818
			c0,1.135,0.738,1.692,2.413,2.341c2.052,0.792,3.097,1.782,3.097,3.565c0,1.872-1.387,3.492-4.249,3.492
			c-1.171,0-2.449-0.342-3.098-0.773L444.484,307.156z"/>
		<path fill="#EAF6F5" d="M456.239,309.064l-3.961-12.136h1.692l1.891,5.978c0.522,1.639,0.972,3.115,1.296,4.538h0.036
			c0.343-1.405,0.847-2.936,1.387-4.52l2.053-5.996h1.674l-4.339,12.136H456.239z"/>
		<path fill="#EAF6F5" d="M472.855,308.524c-0.702,0.252-2.089,0.666-3.728,0.666c-1.836,0-3.349-0.468-4.537-1.603
			c-1.045-1.008-1.692-2.629-1.692-4.52c0.018-3.619,2.503-6.266,6.571-6.266c1.405,0,2.503,0.307,3.025,0.559l-0.378,1.278
			c-0.648-0.288-1.459-0.522-2.683-0.522c-2.953,0-4.88,1.837-4.88,4.88c0,3.078,1.854,4.897,4.682,4.897
			c1.026,0,1.729-0.145,2.089-0.324v-3.619h-2.467v-1.261h3.997V308.524z"/>
	</g>
	<g>
		<path fill="#EAF6F5" d="M464.588,242.206c0.702,0.432,1.729,0.792,2.809,0.792c1.603,0,2.539-0.847,2.539-2.07
			c0-1.135-0.648-1.783-2.287-2.413c-1.98-0.702-3.204-1.729-3.204-3.439c0-1.891,1.566-3.295,3.925-3.295
			c1.242,0,2.143,0.288,2.683,0.595l-0.432,1.278c-0.396-0.216-1.207-0.576-2.305-0.576c-1.657,0-2.287,0.99-2.287,1.818
			c0,1.135,0.738,1.692,2.413,2.341c2.052,0.792,3.097,1.782,3.097,3.565c0,1.872-1.387,3.492-4.249,3.492
			c-1.171,0-2.449-0.342-3.098-0.773L464.588,242.206z"/>
		<path fill="#EAF6F5" d="M476.343,244.114l-3.961-12.136h1.692l1.891,5.978c0.522,1.639,0.972,3.115,1.296,4.538h0.036
			c0.343-1.405,0.847-2.936,1.387-4.52l2.053-5.996h1.674l-4.339,12.136H476.343z"/>
		<path fill="#EAF6F5" d="M492.959,243.574c-0.702,0.252-2.089,0.666-3.728,0.666c-1.836,0-3.349-0.468-4.537-1.603
			c-1.045-1.008-1.692-2.629-1.692-4.52c0.018-3.619,2.503-6.266,6.571-6.266c1.405,0,2.503,0.307,3.025,0.559l-0.378,1.278
			c-0.648-0.288-1.459-0.522-2.683-0.522c-2.953,0-4.88,1.837-4.88,4.88c0,3.078,1.854,4.897,4.682,4.897
			c1.026,0,1.729-0.145,2.089-0.324v-3.619h-2.467v-1.261h3.997V243.574z"/>
	</g>
	<g>
		<path fill="#EAF6F5" d="M475.212,287.28c0.624,0.384,1.537,0.704,2.497,0.704c1.425,0,2.257-0.753,2.257-1.841
			c0-1.009-0.576-1.585-2.033-2.145c-1.761-0.625-2.849-1.537-2.849-3.058c0-1.681,1.393-2.93,3.489-2.93
			c1.104,0,1.905,0.257,2.385,0.528l-0.384,1.137c-0.353-0.192-1.072-0.512-2.049-0.512c-1.473,0-2.033,0.88-2.033,1.616
			c0,1.009,0.656,1.505,2.146,2.081c1.824,0.704,2.753,1.584,2.753,3.169c0,1.665-1.232,3.105-3.777,3.105
			c-1.041,0-2.178-0.305-2.754-0.688L475.212,287.28z"/>
		<path fill="#EAF6F5" d="M485.661,288.977l-3.521-10.788h1.504l1.681,5.313c0.465,1.457,0.864,2.77,1.152,4.034h0.032
			c0.305-1.249,0.753-2.609,1.232-4.018l1.825-5.33h1.488l-3.857,10.788H485.661z"/>
		<path fill="#EAF6F5" d="M500.431,288.496c-0.624,0.225-1.856,0.593-3.313,0.593c-1.633,0-2.977-0.416-4.033-1.425
			c-0.929-0.896-1.505-2.337-1.505-4.018c0.016-3.218,2.225-5.57,5.843-5.57c1.248,0,2.225,0.272,2.688,0.496l-0.336,1.137
			c-0.576-0.256-1.297-0.464-2.385-0.464c-2.625,0-4.338,1.632-4.338,4.337c0,2.737,1.648,4.354,4.162,4.354
			c0.912,0,1.536-0.129,1.856-0.288v-3.218h-2.193v-1.12h3.554V288.496z"/>
	</g>
	<path fill="#5C3A21" d="M307.07,237.845l-8.5,20.133h39.221v46.613h-49v54.602h41.829c0.045-13.799,11.244-24.974,25.055-24.974
		s25.01,11.175,25.055,24.974h5.061V237.845H307.07z"/>
	<path fill="#5C3A21" d="M376.864,330.591l6.761,28.602h87.108c0.045-13.799,11.245-24.974,25.056-24.974
		s25.011,11.175,25.056,24.974h13.512v-28.602H376.864z"/>
	<g>
		<path fill="#EAF6F5" d="M294.424,318.59c0.546,0.336,1.345,0.616,2.186,0.616c1.246,0,1.975-0.658,1.975-1.611
			c0-0.883-0.504-1.387-1.779-1.877c-1.54-0.546-2.493-1.345-2.493-2.676c0-1.471,1.219-2.563,3.054-2.563
			c0.967,0,1.667,0.224,2.087,0.462l-0.336,0.994c-0.308-0.168-0.938-0.448-1.793-0.448c-1.288,0-1.779,0.771-1.779,1.415
			c0,0.883,0.575,1.316,1.878,1.821c1.597,0.616,2.409,1.387,2.409,2.773c0,1.457-1.079,2.717-3.306,2.717
			c-0.911,0-1.905-0.266-2.41-0.602L294.424,318.59z"/>
		<path fill="#EAF6F5" d="M303.568,320.074l-3.082-9.441h1.317l1.471,4.65c0.406,1.275,0.756,2.424,1.009,3.53h0.027
			c0.267-1.093,0.658-2.283,1.079-3.516l1.597-4.665h1.303l-3.376,9.441H303.568z"/>
		<path fill="#EAF6F5" d="M316.492,319.654c-0.546,0.196-1.624,0.518-2.899,0.518c-1.429,0-2.605-0.364-3.529-1.246
			c-0.813-0.784-1.317-2.045-1.317-3.516c0.015-2.816,1.947-4.875,5.113-4.875c1.093,0,1.947,0.238,2.354,0.435l-0.295,0.994
			c-0.504-0.225-1.134-0.406-2.087-0.406c-2.297,0-3.796,1.429-3.796,3.796c0,2.396,1.442,3.811,3.642,3.811
			c0.799,0,1.345-0.112,1.625-0.253v-2.815h-1.919v-0.98h3.109V319.654z"/>
		<path fill="#EAF6F5" d="M324.737,320.074c-0.171-0.171-0.333-0.342-0.567-0.594c-0.522,0.485-1.107,0.692-1.773,0.692
			c-1.18,0-1.863-0.792-1.863-1.701c0-0.828,0.495-1.396,1.188-1.773v-0.027c-0.315-0.396-0.505-0.837-0.505-1.27
			c0-0.737,0.531-1.494,1.54-1.494c0.756,0,1.341,0.504,1.341,1.287c0,0.64-0.369,1.144-1.332,1.621v0.026
			c0.514,0.595,1.09,1.261,1.477,1.693c0.279-0.424,0.468-1.009,0.585-1.774h0.721c-0.162,0.955-0.424,1.711-0.874,2.242
			c0.324,0.342,0.64,0.685,1,1.071H324.737z M323.783,319.03c-0.36-0.396-1.035-1.135-1.711-1.909
			c-0.324,0.207-0.783,0.595-0.783,1.233c0,0.693,0.514,1.225,1.242,1.225C323.053,319.579,323.495,319.345,323.783,319.03z
			 M321.937,315.33c0,0.432,0.198,0.765,0.459,1.089c0.612-0.351,1.009-0.675,1.009-1.188c0-0.369-0.207-0.783-0.702-0.783
			C322.198,314.447,321.937,314.861,321.937,315.33z"/>
		<path fill="#EAF6F5" d="M331.37,319.912c-0.207,0.108-0.666,0.252-1.251,0.252c-1.314,0-2.17-0.891-2.17-2.224
			c0-1.341,0.919-2.313,2.341-2.313c0.469,0,0.883,0.117,1.099,0.225l-0.18,0.612c-0.189-0.107-0.486-0.207-0.919-0.207
			c-0.999,0-1.539,0.738-1.539,1.647c0,1.009,0.648,1.63,1.513,1.63c0.449,0,0.747-0.117,0.972-0.216L331.37,319.912z"/>
		<path fill="#EAF6F5" d="M336.186,317.859c0,1.611-1.116,2.313-2.17,2.313c-1.18,0-2.089-0.864-2.089-2.241
			c0-1.458,0.955-2.313,2.161-2.313C335.339,315.618,336.186,316.527,336.186,317.859z M332.729,317.904
			c0,0.954,0.549,1.675,1.323,1.675c0.756,0,1.323-0.711,1.323-1.692c0-0.738-0.369-1.675-1.306-1.675
			C333.134,316.212,332.729,317.076,332.729,317.904z"/>
	</g>
	<animateTransform attributeName="transform"
	 attributeType="XML"
	 type="translate"
	 dur="5s"
	 values="0,-250; 0,250 "
	 repeatCount="indefinite" />
</g>

</svg>
