<svg version="1.1"
     baseProfile="full"
     xmlns="http://www.w3.org/2000/svg">

  <circle cx="520" cy="0" r="5" fill="#47D1AF"/>
  <circle cx="540" cy="10" r="5" fill="#47D1AF"/>
  <circle cx="560" cy="15" r="5" fill="#47D1AF"/>
  <circle cx="580" cy="20" r="5" fill="#47D1AF"/>
  <circle cx="600" cy="25" r="5" fill="#47D1AF"/>
  <circle cx="620" cy="30" r="5" fill="#47D1AF"/>
  <circle cx="640" cy="35" r="5" fill="#47D1AF"/>
  <circle cx="660" cy="42" r="5" fill="#47D1AF"/>
  <circle cx="680" cy="50" r="5" fill="#47D1AF"/>
  <circle cx="700" cy="60" r="5" fill="#47D1AF"/>
  <circle cx="720" cy="70" r="5" fill="#47D1AF"/>
  <circle cx="738" cy="80" r="5" fill="#47D1AF"/>
  <circle cx="756" cy="93" r="5" fill="#47D1AF"/>
  <circle cx="775" cy="107" r="5" fill="#47D1AF"/>
  <circle cx="790" cy="120" r="5" fill="#47D1AF"/>
  <circle cx="805" cy="133" r="5" fill="#47D1AF"/>
  <circle cx="820" cy="147" r="5" fill="#47D1AF"/>
  <circle cx="835" cy="160" r="5" fill="#47D1AF"/>
  <circle cx="850" cy="174" r="5" fill="#47D1AF"/>
  <circle cx="865" cy="190" r="5" fill="#47D1AF"/>
  <circle cx="879" cy="208" r="5" fill="#47D1AF"/>
  <circle cx="893" cy="222" r="5" fill="#47D1AF"/>
  <circle cx="905" cy="236" r="5" fill="#47D1AF"/>
  <circle cx="914" cy="252" r="5" fill="#47D1AF"/>
  <circle cx="924" cy="266" r="5" fill="#47D1AF"/>
  <circle cx="933" cy="282" r="5" fill="#47D1AF"/>
  <circle cx="938" cy="300" r="5" fill="#47D1AF"/>
  <circle cx="943" cy="316" r="5" fill="#47D1AF"/>
  <circle cx="946" cy="332" r="5" fill="#47D1AF"/>
  <circle cx="946" cy="350" r="5" fill="#47D1AF"/>
  <circle cx="945" cy="368" r="5" fill="#47D1AF"/>
  <circle cx="942" cy="385" r="5" fill="#47D1AF"/>
  <circle cx="939" cy="400" r="5" fill="#47D1AF"/>
  <circle cx="936" cy="418" r="5" fill="#47D1AF"/>
  <circle cx="932" cy="435" r="5" fill="#47D1AF"/>
  <circle cx="927" cy="450" r="5" fill="#47D1AF"/>
  <circle cx="923" cy="465" r="5" fill="#47D1AF"/>
  <circle cx="918" cy="480" r="5" fill="#47D1AF"/>
  <circle cx="913" cy="495" r="5" fill="#47D1AF"/>
  <circle cx="906" cy="510" r="5" fill="#47D1AF"/>
  <circle cx="900" cy="525" r="5" fill="#47D1AF"/>
  <circle cx="894" cy="540" r="5" fill="#47D1AF"/>
  <circle cx="887" cy="555" r="5" fill="#47D1AF"/>
  <circle cx="880" cy="570" r="5" fill="#47D1AF"/>
  <circle cx="871" cy="587" r="5" fill="#47D1AF"/>
  <circle cx="862" cy="603" r="5" fill="#47D1AF"/>
  <circle cx="852" cy="616" r="5" fill="#47D1AF"/>
  <circle cx="842" cy="629" r="5" fill="#47D1AF"/>
  <circle cx="832" cy="642" r="5" fill="#47D1AF"/>
  <circle cx="822" cy="652" r="5" fill="#47D1AF"/>
  <circle cx="810" cy="662" r="5" fill="#47D1AF"/>
  <circle cx="795" cy="672" r="5" fill="#47D1AF"/>
  <circle cx="780" cy="682" r="5" fill="#47D1AF"/>
  <circle cx="764" cy="692" r="5" fill="#47D1AF"/>
  <circle cx="744" cy="702" r="5" fill="#47D1AF"/>
  <circle cx="724" cy="712" r="5" fill="#47D1AF"/>
  <circle cx="704" cy="720" r="5" fill="#47D1AF"/>
  <circle cx="679" cy="722" r="5" fill="#47D1AF"/>
  <circle cx="652" cy="722" r="5" fill="#47D1AF"/>
  <circle cx="627" cy="720" r="5" fill="#47D1AF"/>
  <circle cx="600" cy="716" r="5" fill="#47D1AF"/>
  <circle cx="580" cy="712" r="5" fill="#47D1AF"/>
  <circle cx="560" cy="702" r="5" fill="#47D1AF"/>
  <circle cx="540" cy="692" r="5" fill="#47D1AF"/>
  <circle cx="520" cy="682" r="5" fill="#47D1AF"/>
  <circle cx="498" cy="672" r="5" fill="#47D1AF"/>
  <circle cx="482" cy="662" r="5" fill="#47D1AF"/>
  <circle cx="468" cy="650" r="5" fill="#47D1AF"/>
  <circle cx="456" cy="637" r="5" fill="#47D1AF"/>
  <circle cx="446" cy="623" r="5" fill="#47D1AF"/>
  <circle cx="436" cy="610" r="5" fill="#47D1AF"/>
  <circle cx="426" cy="596" r="5" fill="#47D1AF"/>
  <circle cx="416" cy="582" r="5" fill="#47D1AF"/>
  <circle cx="408" cy="570" r="5" fill="#47D1AF"/>
  <circle cx="400" cy="554" r="5" fill="#47D1AF"/>
  <circle cx="393" cy="538" r="5" fill="#47D1AF"/>
  <circle cx="386" cy="522" r="5" fill="#47D1AF"/>
  <circle cx="381" cy="508" r="5" fill="#47D1AF"/>
  <circle cx="375" cy="494" r="5" fill="#47D1AF"/>
  <circle cx="370" cy="478" r="5" fill="#47D1AF"/>
  <circle cx="364" cy="462" r="5" fill="#47D1AF"/>
  <circle cx="360" cy="446" r="5" fill="#47D1AF"/>
  <circle cx="358" cy="430" r="5" fill="#47D1AF"/>
  <circle cx="358" cy="413" r="5" fill="#47D1AF"/>
  <circle cx="359" cy="397" r="5" fill="#47D1AF"/>
  <circle cx="361" cy="382" r="5" fill="#47D1AF"/>
  <circle cx="365" cy="367" r="5" fill="#47D1AF"/>
  <circle cx="369" cy="352" r="5" fill="#47D1AF"/>
  <circle cx="375" cy="337" r="5" fill="#47D1AF"/>
  <circle cx="382" cy="323" r="5" fill="#47D1AF"/>
  <circle cx="392" cy="310" r="5" fill="#47D1AF"/>
  <circle cx="400" cy="297" r="5" fill="#47D1AF"/>
  <circle cx="412" cy="285" r="5" fill="#47D1AF"/>
  <circle cx="423" cy="273" r="5" fill="#47D1AF"/>
  <circle cx="438" cy="259" r="5" fill="#47D1AF"/>
  <circle cx="454" cy="248" r="5" fill="#47D1AF"/>
  <circle cx="470" cy="238" r="5" fill="#47D1AF"/>
  <circle cx="485" cy="230" r="5" fill="#47D1AF"/>
  <circle cx="499" cy="222" r="5" fill="#47D1AF"/>
  <circle cx="514" cy="215" r="5" fill="#47D1AF"/>
  <circle cx="529" cy="208" r="5" fill="#47D1AF"/>
  <circle cx="543" cy="202" r="5" fill="#47D1AF"/>
  <circle cx="560" cy="196" r="5" fill="#47D1AF"/>
  <circle cx="576" cy="193" r="5" fill="#47D1AF"/>
  <circle cx="593" cy="189" r="5" fill="#47D1AF"/>
  <circle cx="609" cy="186" r="5" fill="#47D1AF"/>
  <circle cx="625" cy="184" r="5" fill="#47D1AF"/>
  <circle cx="640" cy="182" r="5" fill="#47D1AF"/>
  <circle cx="657" cy="181" r="5" fill="#47D1AF"/>
  <circle cx="674" cy="180" r="5" fill="#47D1AF"/>
  <circle cx="692" cy="180" r="5" fill="#47D1AF"/>
  <circle cx="708" cy="181" r="5" fill="#47D1AF"/>
  <circle cx="724" cy="182" r="5" fill="#47D1AF"/>
  <circle cx="744" cy="184" r="5" fill="#47D1AF"/>
  <circle cx="762" cy="186" r="5" fill="#47D1AF"/>
  <circle cx="782" cy="189" r="5" fill="#47D1AF"/>
  <circle cx="800" cy="192" r="5" fill="#47D1AF"/>
  <circle cx="817" cy="195" r="5" fill="#47D1AF"/>
  <circle cx="834" cy="200" r="5" fill="#47D1AF"/>
  <circle cx="850" cy="204" r="5" fill="#47D1AF"/>
  <circle cx="868" cy="209" r="5" fill="#47D1AF"/>
  <circle cx="883" cy="215" r="5" fill="#47D1AF"/>
  <circle cx="900" cy="221" r="5" fill="#47D1AF"/>
  <circle cx="920" cy="231" r="5" fill="#47D1AF"/>
  <circle cx="940" cy="241" r="5" fill="#47D1AF"/>
  <circle cx="960" cy="251" r="5" fill="#47D1AF"/>
  <circle cx="980" cy="261" r="5" fill="#47D1AF"/>
  <circle cx="1000" cy="271" r="5" fill="#47D1AF"/>
  <circle cx="1020" cy="282" r="5" fill="#47D1AF"/>
  <circle cx="1035" cy="295" r="5" fill="#47D1AF"/>
  <circle cx="1050" cy="308" r="5" fill="#47D1AF"/>
  <circle cx="1065" cy="320" r="5" fill="#47D1AF"/>
  <circle cx="1075" cy="334" r="5" fill="#47D1AF"/>
  <circle cx="1085" cy="350" r="5" fill="#47D1AF"/>
  <circle cx="1095" cy="368" r="5" fill="#47D1AF"/>
  <circle cx="1105" cy="384" r="5" fill="#47D1AF"/>
  <circle cx="1116" cy="400" r="5" fill="#47D1AF"/>
  <circle cx="1125" cy="416" r="5" fill="#47D1AF"/>
  <circle cx="1135" cy="432" r="5" fill="#47D1AF"/>
  <circle cx="1145" cy="450" r="5" fill="#47D1AF"/>
  <circle cx="1155" cy="465" r="5" fill="#47D1AF"/>
  <circle cx="1165" cy="480" r="5" fill="#47D1AF"/>
  <circle cx="1175" cy="495" r="5" fill="#47D1AF"/>
  <circle cx="1186" cy="510" r="5" fill="#47D1AF"/>
  <circle cx="1196" cy="525" r="5" fill="#47D1AF"/>
  <circle cx="1210" cy="540" r="5" fill="#47D1AF"/>
  <circle cx="1223" cy="550" r="5" fill="#47D1AF"/>
  <circle cx="1235" cy="560" r="5" fill="#47D1AF"/>
  <circle cx="1250" cy="565" r="5" fill="#47D1AF"/>
  <circle cx="1265" cy="568" r="5" fill="#47D1AF"/>

</svg>
