<svg version="1.1"
     baseProfile="full"
     xmlns="http://www.w3.org/2000/svg">
<!-- P2 écran 4  -->

      <circle cx="520" cy="5" r="5" fill="#47D1AF"/>
      <circle cx="515" cy="25" r="5" fill="#47D1AF"/>
      <circle cx="510" cy="45" r="5" fill="#47D1AF"/>
      <circle cx="505" cy="65" r="5" fill="#47D1AF"/>
      <circle cx="500" cy="85" r="5" fill="#47D1AF"/>
      <circle cx="495" cy="105" r="5" fill="#47D1AF"/>
      <circle cx="490" cy="125" r="5" fill="#47D1AF"/>
      <circle cx="485" cy="145" r="5" fill="#47D1AF"/>
      <circle cx="480" cy="165" r="5" fill="#47D1AF"/>
      <circle cx="475" cy="185" r="5" fill="#47D1AF"/>
      <circle cx="470" cy="205" r="5" fill="#47D1AF"/>
      <circle cx="465" cy="225" r="5" fill="#47D1AF"/>
      <circle cx="457" cy="245" r="5" fill="#47D1AF"/>
      <circle cx="450" cy="265" r="5" fill="#47D1AF"/>
      <circle cx="440" cy="285" r="5" fill="#47D1AF"/>
      <circle cx="430" cy="300" r="5" fill="#47D1AF"/>
      <circle cx="415" cy="315" r="5" fill="#47D1AF"/>
      <circle cx="400" cy="326" r="5" fill="#47D1AF"/>
      <circle cx="385" cy="335" r="5" fill="#47D1AF"/>
      <circle cx="365" cy="340" r="5" fill="#47D1AF"/>
      <circle cx="345" cy="340" r="5" fill="#47D1AF"/>
      <circle cx="322" cy="336" r="5" fill="#47D1AF"/>
      <circle cx="305" cy="329" r="5" fill="#47D1AF"/>
      <circle cx="290" cy="323" r="5" fill="#47D1AF"/>
      <circle cx="273" cy="313" r="5" fill="#47D1AF"/>
      <circle cx="258" cy="304" r="5" fill="#47D1AF"/>
      <circle cx="242" cy="292" r="5" fill="#47D1AF"/>
      <circle cx="228" cy="280" r="5" fill="#47D1AF"/>
      <circle cx="213" cy="264" r="5" fill="#47D1AF"/>
      <circle cx="205" cy="246" r="5" fill="#47D1AF"/>
      <circle cx="200" cy="228" r="5" fill="#47D1AF"/>
      <circle cx="200" cy="207" r="5" fill="#47D1AF"/>
      <circle cx="206" cy="190" r="5" fill="#47D1AF"/>
      <circle cx="214" cy="174" r="5" fill="#47D1AF"/>
      <circle cx="228" cy="160" r="5" fill="#47D1AF"/>
      <circle cx="248" cy="149" r="5" fill="#47D1AF"/>
      <circle cx="268" cy="144" r="5" fill="#47D1AF"/>
      <circle cx="288" cy="146" r="5" fill="#47D1AF"/>
      <circle cx="308" cy="154" r="5" fill="#47D1AF"/>
      <circle cx="328" cy="167" r="5" fill="#47D1AF"/>
      <circle cx="348" cy="180" r="5" fill="#47D1AF"/>
      <circle cx="366" cy="194" r="5" fill="#47D1AF"/>
      <circle cx="380" cy="208" r="5" fill="#47D1AF"/>
      <circle cx="396" cy="225" r="5" fill="#47D1AF"/>
      <circle cx="410" cy="240" r="5" fill="#47D1AF"/>
      <circle cx="419" cy="254" r="5" fill="#47D1AF"/>
      <circle cx="426" cy="270" r="5" fill="#47D1AF"/>
      <circle cx="435" cy="285" r="5" fill="#47D1AF"/>
      <circle cx="444" cy="300" r="5" fill="#47D1AF"/>
      <circle cx="450" cy="315" r="5" fill="#47D1AF"/>
      <circle cx="458" cy="334" r="5" fill="#47D1AF"/>
      <circle cx="464" cy="353" r="5" fill="#47D1AF"/>
      <circle cx="470" cy="372" r="5" fill="#47D1AF"/>
      <circle cx="475" cy="390" r="5" fill="#47D1AF"/>
      <circle cx="478" cy="408" r="5" fill="#47D1AF"/>
      <circle cx="479" cy="428" r="5" fill="#47D1AF"/>
      <circle cx="477" cy="447" r="5" fill="#47D1AF"/>
      <circle cx="474" cy="465" r="5" fill="#47D1AF"/>
      <circle cx="470" cy="484" r="5" fill="#47D1AF"/>
      <circle cx="466" cy="505" r="5" fill="#47D1AF"/>
      <circle cx="458" cy="525" r="5" fill="#47D1AF"/>
      <circle cx="452" cy="545" r="5" fill="#47D1AF"/>
      <circle cx="445" cy="565" r="5" fill="#47D1AF"/>
      <circle cx="440" cy="585" r="5" fill="#47D1AF"/>
      <circle cx="435" cy="605" r="5" fill="#47D1AF"/>
      <circle cx="430" cy="625" r="5" fill="#47D1AF"/>
      <circle cx="425" cy="645" r="5" fill="#47D1AF"/>
      <circle cx="420" cy="665" r="5" fill="#47D1AF"/>
      <circle cx="415" cy="685" r="5" fill="#47D1A"/>
      



    </svg>
