<svg version="1.1"
     baseProfile="full"
     xmlns="http://www.w3.org/2000/svg">

           <circle cx="415" cy="0" r="5" fill="#47D1AF"/>
           <circle cx="418" cy="20" r="5" fill="#47D1AF"/>
           <circle cx="418" cy="40" r="5" fill="#47D1AF"/>
           <circle cx="416" cy="60" r="5" fill="#47D1AF"/>
           <circle cx="414" cy="80" r="5" fill="#47D1AF"/>
           <circle cx="410" cy="100" r="5" fill="#47D1AF"/>
           <circle cx="404" cy="120" r="5" fill="#47D1AF"/>
           <circle cx="394" cy="138" r="5" fill="#47D1AF"/>
           <circle cx="380" cy="152" r="5" fill="#47D1AF"/>
           <circle cx="362" cy="160" r="5" fill="#47D1AF"/>
           <circle cx="342" cy="166" r="5" fill="#47D1AF"/>
           <circle cx="322" cy="170" r="5" fill="#47D1AF"/>
           <circle cx="302" cy="172" r="5" fill="#47D1AF"/>
           <circle cx="282" cy="172" r="5" fill="#47D1AF"/>
           <circle cx="262" cy="170" r="5" fill="#47D1AF"/>
           <circle cx="242" cy="166" r="5" fill="#47D1AF"/>
           <circle cx="222" cy="158" r="5" fill="#47D1AF"/>
           <circle cx="206" cy="148" r="5" fill="#47D1AF"/>
           <circle cx="192" cy="136" r="5" fill="#47D1AF"/>
           <circle cx="180" cy="122" r="5" fill="#47D1AF"/>
           <circle cx="170" cy="108" r="5" fill="#47D1AF"/>
           <circle cx="166" cy="92" r="5" fill="#47D1AF"/>
           <circle cx="167" cy="74" r="5" fill="#47D1AF"/>
           <circle cx="174" cy="58" r="5" fill="#47D1AF"/>
           <circle cx="186" cy="42" r="5" fill="#47D1AF"/>
           <circle cx="200" cy="34" r="5" fill="#47D1AF"/>
           <circle cx="216" cy="28" r="5" fill="#47D1AF"/>
           <circle cx="236" cy="26" r="5" fill="#47D1AF"/>
           <circle cx="254" cy="30" r="5" fill="#47D1AF"/>
           <circle cx="270" cy="38" r="5" fill="#47D1AF"/>
           <circle cx="280" cy="52" r="5" fill="#47D1AF"/>
           <circle cx="285" cy="70" r="5" fill="#47D1AF"/>
           <circle cx="284" cy="88" r="5" fill="#47D1AF"/>
           <circle cx="280" cy="106" r="5" fill="#47D1AF"/>
           <circle cx="274" cy="124" r="5" fill="#47D1AF"/>
           <circle cx="268" cy="142" r="5" fill="#47D1AF"/>
           <circle cx="258" cy="160" r="5" fill="#47D1AF"/>
           <circle cx="250" cy="178" r="5" fill="#47D1AF"/>
           <circle cx="240" cy="194" r="5" fill="#47D1AF"/>
           <circle cx="230" cy="210" r="5" fill="#47D1AF"/>
           <circle cx="220" cy="226" r="5" fill="#47D1AF"/>
           <circle cx="212" cy="242" r="5" fill="#47D1AF"/>
           <circle cx="206" cy="260" r="5" fill="#47D1AF"/>
           <circle cx="208" cy="280" r="5" fill="#47D1AF"/>
           <circle cx="212" cy="300" r="5" fill="#47D1AF"/>
           <circle cx="224" cy="320" r="5" fill="#47D1AF"/>
           <circle cx="236" cy="340" r="5" fill="#47D1AF"/>
           <circle cx="248" cy="360" r="5" fill="#47D1AF"/>
           <circle cx="260" cy="380" r="5" fill="#47D1AF"/>
           <circle cx="272" cy="400" r="5" fill="#47D1AF"/>
           <circle cx="284" cy="420" r="5" fill="#47D1AF"/>
           <circle cx="296" cy="440" r="5" fill="#47D1AF"/>
           <circle cx="312" cy="460" r="5" fill="#47D1AF"/>
           <circle cx="328" cy="478" r="5" fill="#47D1AF"/>
           <circle cx="348" cy="494" r="5" fill="#47D1AF"/>
           <circle cx="368" cy="506" r="5" fill="#47D1AF"/>
           <circle cx="390" cy="512" r="5" fill="#47D1AF"/>
           <circle cx="410" cy="510" r="5" fill="#47D1AF"/>
           <circle cx="430" cy="506" r="5" fill="#47D1AF"/>
           <circle cx="450" cy="500" r="5" fill="#47D1AF"/>
           <circle cx="470" cy="492" r="5" fill="#47D1AF"/>
           <circle cx="490" cy="482" r="5" fill="#47D1AF"/>
           <circle cx="510" cy="472" r="5" fill="#47D1AF"/>
           <circle cx="530" cy="460" r="5" fill="#47D1AF"/>
           <circle cx="540" cy="444" r="5" fill="#47D1AF"/>
           <circle cx="546" cy="426" r="5" fill="#47D1AF"/>
           <circle cx="546" cy="406" r="5" fill="#47D1AF"/>
           <circle cx="542" cy="388" r="5" fill="#47D1AF"/>
           <circle cx="526" cy="380" r="5" fill="#47D1AF"/>
           <circle cx="506" cy="376" r="5" fill="#47D1AF"/>
           <circle cx="486" cy="380" r="5" fill="#47D1AF"/>
           <circle cx="468" cy="394" r="5" fill="#47D1AF"/>
           <circle cx="456" cy="412" r="5" fill="#47D1AF"/>
           <circle cx="446" cy="430" r="5" fill="#47D1AF"/>
           <circle cx="442" cy="452" r="5" fill="#47D1AF"/>
           <circle cx="440" cy="472" r="5" fill="#47D1AF"/>
           <circle cx="440" cy="492" r="5" fill="#47D1AF"/>
           <circle cx="442" cy="512" r="5" fill="#47D1AF"/>
           <circle cx="444" cy="532" r="5" fill="#47D1AF"/>
           <circle cx="446" cy="552" r="5" fill="#47D1AF"/>
           <circle cx="448" cy="572" r="5" fill="#47D1AF"/>
           <circle cx="452" cy="592" r="5" fill="#47D1AF"/>
           <circle cx="456" cy="612" r="5" fill="#47D1AF"/>
           <circle cx="462" cy="632" r="5" fill="#47D1AF"/>
           <circle cx="472" cy="652" r="5" fill="#47D1AF"/>
           <circle cx="482" cy="672" r="5" fill="#47D1AF"/>





















































































</svg>
