<svg version="1.1"
     baseProfile="full"
     xmlns="http://www.w3.org/2000/svg">

      <circle cx="5" cy="400" r="5" fill="#47D1AF"/>
      <circle cx="25" cy="402" r="5" fill="#47D1AF"/>
      <circle cx="44" cy="404" r="5" fill="#47D1AF"/>
      <circle cx="65" cy="406" r="5" fill="#47D1AF"/>
      <circle cx="85" cy="408" r="5" fill="#47D1AF"/>
      <circle cx="105" cy="410" r="5" fill="#47D1AF"/>
      <circle cx="125" cy="412" r="5" fill="#47D1AF"/>
      <circle cx="145" cy="414" r="5" fill="#47D1AF"/>
      <circle cx="165" cy="416" r="5" fill="#47D1AF"/>
      <circle cx="185" cy="418" r="5" fill="#47D1AF"/>
      <circle cx="205" cy="420" r="5" fill="#47D1AF"/>
      <circle cx="226" cy="418" r="5" fill="#47D1AF"/>
      <circle cx="252" cy="414" r="5" fill="#47D1AF"/>
      <circle cx="275" cy="410" r="5" fill="#47D1AF"/>
      <circle cx="294" cy="405" r="5" fill="#47D1AF"/>
      <circle cx="310" cy="398" r="5" fill="#47D1AF"/>
      <circle cx="324" cy="386" r="5" fill="#47D1AF"/>
      <circle cx="339" cy="375" r="5" fill="#47D1AF"/>
      <circle cx="352" cy="362" r="5" fill="#47D1AF"/>
      <circle cx="364" cy="352" r="5" fill="#47D1AF"/>
      <circle cx="372" cy="337" r="5" fill="#47D1AF"/>
      <circle cx="380" cy="323" r="5" fill="#47D1AF"/>
      <circle cx="384" cy="306" r="5" fill="#47D1AF"/>
      <circle cx="388" cy="290" r="5" fill="#47D1AF"/>
      <circle cx="390" cy="272" r="5" fill="#47D1AF"/>
      <circle cx="388" cy="255" r="5" fill="#47D1AF"/>
      <circle cx="384" cy="235" r="5" fill="#47D1AF"/>
      <circle cx="376" cy="215" r="5" fill="#47D1AF"/>
      <circle cx="360" cy="205" r="5" fill="#47D1AF"/>
      <circle cx="340" cy="200" r="5" fill="#47D1AF"/>
      <circle cx="320" cy="203" r="5" fill="#47D1AF"/>
      <circle cx="300" cy="206" r="5" fill="#47D1AF"/>
      <circle cx="280" cy="214" r="5" fill="#47D1AF"/>
      <circle cx="260" cy="222" r="5" fill="#47D1AF"/>
      <circle cx="240" cy="232" r="5" fill="#47D1AF"/>
      <circle cx="220" cy="244" r="5" fill="#47D1AF"/>
      <circle cx="204" cy="259" r="5" fill="#47D1AF"/>
      <circle cx="192" cy="274" r="5" fill="#47D1AF"/>
      <circle cx="180" cy="290" r="5" fill="#47D1AF"/>
      <circle cx="174" cy="310" r="5" fill="#47D1AF"/>
      <circle cx="174" cy="330" r="5" fill="#47D1AF"/>
      <circle cx="174" cy="350" r="5" fill="#47D1AF"/>
      <circle cx="175" cy="370" r="5" fill="#47D1AF"/>
      <circle cx="176" cy="390" r="5" fill="#47D1AF"/>
      <circle cx="177" cy="410" r="5" fill="#47D1AF"/>
      <circle cx="178" cy="430" r="5" fill="#47D1AF"/>
      <circle cx="184" cy="450" r="5" fill="#47D1AF"/>
      <circle cx="190" cy="470" r="5" fill="#47D1AF"/>
      <circle cx="196" cy="490" r="5" fill="#47D1AF"/>
      <circle cx="204" cy="510" r="5" fill="#47D1AF"/>
      <circle cx="210" cy="530" r="5" fill="#47D1AF"/>
      <circle cx="216" cy="550" r="5" fill="#47D1AF"/>
      <circle cx="222" cy="570" r="5" fill="#47D1AF"/>
      <circle cx="228" cy="590" r="5" fill="#47D1AF"/>
      <circle cx="234" cy="610" r="5" fill="#47D1AF"/>
      <circle cx="240" cy="630" r="5" fill="#47D1AF"/>
      <circle cx="246" cy="650" r="5" fill="#47D1AF"/>
      <circle cx="252" cy="670" r="5" fill="#47D1AF"/>
      <circle cx="258" cy="690" r="5" fill="#47D1AF"/>
      <circle cx="264" cy="710" r="5" fill="#47D1AF"/>

    </svg>
